<mxfile host="app.diagrams.net" agent="Mozilla/5.0 (Windows NT 10.0; Win64; x64) AppleWebKit/537.36 (KHTML, like Gecko) Chrome/118.0.0.0 Safari/537.36" version="24.7.16">
  <diagram name="Page-1" id="8lZzrxhoeMXYEpuP2tP1">
    <mxGraphModel dx="1434" dy="782" grid="1" gridSize="10" guides="1" tooltips="1" connect="1" arrows="1" fold="1" page="1" pageScale="1" pageWidth="827" pageHeight="1169" math="0" shadow="0">
      <root>
        <mxCell id="0" />
        <mxCell id="1" parent="0" />
        <mxCell id="G0o43ekpp_AY_qb_rini-1" value="" style="rounded=0;html=1;jettySize=auto;orthogonalLoop=1;fontSize=11;endArrow=block;endFill=0;endSize=8;strokeWidth=1;shadow=0;labelBackgroundColor=none;edgeStyle=orthogonalEdgeStyle;" edge="1" parent="1" source="G0o43ekpp_AY_qb_rini-2" target="G0o43ekpp_AY_qb_rini-5">
          <mxGeometry relative="1" as="geometry" />
        </mxCell>
        <mxCell id="G0o43ekpp_AY_qb_rini-2" value="輸入更新資料" style="rounded=1;whiteSpace=wrap;html=1;fontSize=12;glass=0;strokeWidth=1;shadow=0;" vertex="1" parent="1">
          <mxGeometry x="160" y="80" width="120" height="40" as="geometry" />
        </mxCell>
        <mxCell id="G0o43ekpp_AY_qb_rini-3" value="如果資料&lt;span style=&quot;background-color: initial;&quot;&gt;完整&lt;/span&gt;" style="rounded=0;html=1;jettySize=auto;orthogonalLoop=1;fontSize=11;endArrow=block;endFill=0;endSize=8;strokeWidth=1;shadow=0;labelBackgroundColor=none;edgeStyle=orthogonalEdgeStyle;entryX=0.5;entryY=0;entryDx=0;entryDy=0;" edge="1" parent="1" source="G0o43ekpp_AY_qb_rini-5" target="G0o43ekpp_AY_qb_rini-9">
          <mxGeometry x="-0.2547" y="50" relative="1" as="geometry">
            <mxPoint as="offset" />
            <mxPoint x="220" y="330" as="targetPoint" />
          </mxGeometry>
        </mxCell>
        <mxCell id="G0o43ekpp_AY_qb_rini-4" value="如果資料不完整" style="edgeStyle=orthogonalEdgeStyle;rounded=0;html=1;jettySize=auto;orthogonalLoop=1;fontSize=11;endArrow=block;endFill=0;endSize=8;strokeWidth=1;shadow=0;labelBackgroundColor=none;" edge="1" parent="1" source="G0o43ekpp_AY_qb_rini-5" target="G0o43ekpp_AY_qb_rini-7">
          <mxGeometry y="10" relative="1" as="geometry">
            <mxPoint as="offset" />
          </mxGeometry>
        </mxCell>
        <mxCell id="G0o43ekpp_AY_qb_rini-5" value="驗證輸入資料" style="rhombus;whiteSpace=wrap;html=1;shadow=0;fontFamily=Helvetica;fontSize=12;align=center;strokeWidth=1;spacing=6;spacingTop=-4;" vertex="1" parent="1">
          <mxGeometry x="170" y="170" width="100" height="80" as="geometry" />
        </mxCell>
        <mxCell id="G0o43ekpp_AY_qb_rini-6" style="edgeStyle=orthogonalEdgeStyle;rounded=0;orthogonalLoop=1;jettySize=auto;html=1;exitX=0.5;exitY=0;exitDx=0;exitDy=0;entryX=1;entryY=0.5;entryDx=0;entryDy=0;" edge="1" parent="1" source="G0o43ekpp_AY_qb_rini-7" target="G0o43ekpp_AY_qb_rini-2">
          <mxGeometry relative="1" as="geometry" />
        </mxCell>
        <mxCell id="G0o43ekpp_AY_qb_rini-7" value="提示使用者「請填寫所有必填項」" style="rounded=1;whiteSpace=wrap;html=1;fontSize=12;glass=0;strokeWidth=1;shadow=0;" vertex="1" parent="1">
          <mxGeometry x="414" y="190" width="196" height="40" as="geometry" />
        </mxCell>
        <mxCell id="G0o43ekpp_AY_qb_rini-8" value="" style="edgeStyle=orthogonalEdgeStyle;rounded=0;orthogonalLoop=1;jettySize=auto;html=1;" edge="1" parent="1" source="G0o43ekpp_AY_qb_rini-9" target="G0o43ekpp_AY_qb_rini-11">
          <mxGeometry relative="1" as="geometry" />
        </mxCell>
        <mxCell id="G0o43ekpp_AY_qb_rini-9" value="更新相關表中的資料" style="rounded=1;whiteSpace=wrap;html=1;fontSize=12;glass=0;strokeWidth=1;shadow=0;" vertex="1" parent="1">
          <mxGeometry x="160" y="360" width="120" height="40" as="geometry" />
        </mxCell>
        <mxCell id="G0o43ekpp_AY_qb_rini-10" value="會員資料更新流程圖" style="text;html=1;align=center;verticalAlign=middle;resizable=0;points=[];autosize=1;strokeColor=none;fillColor=none;" vertex="1" parent="1">
          <mxGeometry x="155" y="28" width="130" height="30" as="geometry" />
        </mxCell>
        <mxCell id="G0o43ekpp_AY_qb_rini-11" value="顯示操作成功" style="rounded=1;whiteSpace=wrap;html=1;fontSize=12;glass=0;strokeWidth=1;shadow=0;" vertex="1" parent="1">
          <mxGeometry x="160" y="450" width="120" height="40" as="geometry" />
        </mxCell>
      </root>
    </mxGraphModel>
  </diagram>
</mxfile>
